<svg width="1014" height="348" viewBox="0 0 1014 348" fill="none" xmlns="http://www.w3.org/2000/svg">
<path d="M521.945 205.452L523.504 222.368H532.855L549.775 201.668L539.534 134.004H507.919L457.158 222.368H488.104L496.787 205.452H521.945V205.452ZM519.942 183.862H507.251L518.383 161.826L519.942 183.862Z" fill="#F46D0C"/>
<path fill-rule="evenodd" clip-rule="evenodd" d="M220.257 7.37054L274.358 55.4475C292.836 71.6958 307.976 85.273 326.455 101.521C336.473 110.424 341.149 122.889 338.922 134.018L324.228 205.02C319.33 229.281 315.323 248.868 310.202 273.129C307.308 286.262 298.848 296.5 288.384 300.061L219.589 322.987C196.212 330.777 177.065 337.232 153.688 345.022C149.681 346.358 145.673 347.025 141.888 347.025C144.56 331.668 147.677 313.194 148.79 310.077C149.903 305.626 171.722 277.358 175.284 272.907C181.518 264.894 188.197 257.549 195.099 250.649C202 243.304 208.012 235.959 214.691 228.169C227.381 213.033 240.294 195.449 248.532 176.975C251.649 170.521 255.879 161.395 259.663 155.385C261.222 152.937 263.671 151.156 263.894 148.485C262.558 147.15 261.89 146.927 260.999 145.814C263.226 137.356 269.682 133.795 273.69 127.118C275.471 123.334 276.139 117.547 277.697 115.099C279.923 111.982 283.263 109.979 285.712 107.086C285.712 103.302 285.267 104.637 284.154 102.634C282.595 99.9632 284.376 100.408 284.599 97.7375C283.486 95.7342 281.705 93.731 280.146 91.9504C277.92 89.9472 276.139 88.8343 272.576 89.2795C269.014 89.502 257.66 91.2827 255.656 92.6181C251.426 95.5117 250.758 104.86 250.313 111.092C249.867 119.55 254.098 119.995 248.086 129.121L229.607 155.163C227.604 157.834 211.351 172.301 207.121 175.863L196.212 186.991C185.748 197.675 186.861 194.782 174.393 209.027L162.594 219.043C154.801 225.275 144.56 231.285 133.873 232.62C130.756 233.065 128.085 232.843 124.968 233.51C121.183 234.623 120.738 235.736 117.843 237.072C114.059 238.852 113.168 237.739 109.383 238.407C106.044 238.852 103.372 240.41 100.032 239.075C99.1419 234.178 102.482 224.83 104.04 220.601C105.376 221.046 108.493 225.498 113.391 214.369C114.281 212.143 114.949 209.249 114.504 206.801C113.391 203.685 111.832 204.13 110.051 202.127C110.051 195.227 110.496 186.991 110.942 180.092C111.387 176.085 109.383 170.743 107.157 167.627C104.04 163.398 106.934 162.73 102.927 160.282C97.8061 157.611 96.4703 154.05 93.7986 151.601C92.9081 150.489 91.3496 150.043 90.4591 149.153C88.4553 146.705 90.9044 148.263 87.5648 146.037C84.8932 144.479 82.2215 142.698 78.8819 143.143C76.2103 143.366 76.2103 144.034 74.8745 144.479C73.0934 145.147 71.9802 144.924 70.1991 145.369C66.8595 146.037 60.6257 150.711 59.2899 151.379C54.3918 154.05 53.9466 150.711 49.9391 159.392C47.2674 163.843 42.5921 170.966 42.1468 176.53C41.7015 180.537 41.4789 183.208 41.0336 186.991C41.2562 189.217 40.811 197.453 40.5883 198.566L37.0261 199.233C32.796 208.804 37.2488 213.701 40.143 218.152C42.1468 218.152 41.2562 217.93 41.4789 217.93C42.5921 217.707 41.9241 217.485 43.0373 217.485C45.2637 220.156 44.5958 222.827 45.709 226.165C46.8222 230.172 47.9354 231.73 45.709 236.181C41.2562 245.307 45.0411 243.972 29.2338 242.636C22.5547 241.968 15.4303 241.078 8.52854 241.078C1.62678 232.843 -1.2675 222.381 0.513598 213.256L15.2077 142.253C20.1057 117.992 24.3358 98.1826 29.2338 73.9215C32.1281 60.7894 40.5883 50.5508 51.0523 46.9895L119.847 24.0639C143.224 16.2737 162.371 9.8189 185.748 2.02865C198.661 -1.97776 211.574 0.0254445 220.257 7.37054Z" fill="#F46D0C"/>
<path d="M430.425 175.181L420.407 222.368H448.681L467.383 134.004H440.889L409.72 165.61L391.909 134.004H367.864L349.163 222.368H377.438L387.456 175.181L403.263 202.113L430.425 175.181Z" fill="#F46D0C"/>
<path d="M598.299 194.545L607.427 222.368H637.038L619.004 176.516L653.291 134.004H621.231L603.643 158.042L595.85 134.004H566.239L582.492 176.294L545.089 222.368H577.149L598.299 194.545Z" fill="#F46D0C"/>
<path d="M645.064 222.368H673.339L692.04 134.004H663.765L645.064 222.368Z" fill="#F46D0C"/>
<path d="M768.396 175.181L758.378 222.368H786.875L805.354 134.004H778.86L747.691 165.61L729.88 134.004H705.835L687.134 222.368H715.631L725.427 175.181L741.235 202.113L768.396 175.181Z" fill="#F46D0C"/>
<path d="M846.08 199.665C842.963 199.665 840.292 198.552 838.288 196.326C836.062 194.1 834.948 191.429 834.948 188.091C834.948 187.2 835.171 186.087 835.394 185.197L846.303 134.004H818.028L807.119 185.197C806.674 187.645 806.228 190.094 806.228 192.987C806.228 202.336 809.79 209.903 816.47 215.913C823.371 221.922 832.277 224.816 843.186 224.816C855.654 224.816 866.118 221.032 874.355 213.91C882.593 206.565 887.936 196.994 890.385 185.197L901.294 134.004H872.797L861.888 185.197C860.997 189.203 858.993 192.765 856.099 195.436C852.982 198.329 849.865 199.665 846.08 199.665Z" fill="#F46D0C"/>
<path d="M976.119 175.181L966.101 222.368H994.598L1013.08 134.004H986.583L955.414 165.61L937.603 134.004H913.558L894.857 222.368H923.132L933.151 175.181L948.958 202.113L976.119 175.181Z" fill="#F46D0C"/>
<path d="M367.263 250.524L368.424 244.934H345.677L339.657 275.034H362.963L364.124 269.444H347.698L349.074 262.478H363.092L364.167 257.06H350.192L351.482 250.524H367.263Z" fill="black"/>
<path d="M368.506 275.034H383.212C394.349 275.034 401.96 268.111 401.96 257.49C401.96 249.793 396.413 244.934 387.125 244.934H374.526L368.506 275.034ZM376.633 269.315L380.374 250.653H386.351C392.027 250.653 394.908 253.405 394.908 257.877C394.908 264.413 390.651 269.315 383.427 269.315H376.633Z" fill="black"/>
<path d="M418.221 275.55C426.692 275.55 431.809 270.992 433.615 262.091L437.012 244.934H430.175L426.821 261.661C425.66 267.294 423.209 269.616 418.995 269.616C415.254 269.616 413.19 267.853 413.19 264.198C413.19 263.424 413.276 262.607 413.448 261.661L416.802 244.934H409.793L406.439 261.79C406.224 262.908 406.095 263.983 406.095 265.015C406.095 271.508 410.653 275.55 418.221 275.55Z" fill="black"/>
<path d="M453.743 275.55C458.903 275.55 463.289 274.045 466.471 270.347L462.343 266.133C460.107 268.541 457.398 269.616 454.345 269.616C448.927 269.616 445.917 266.606 445.917 262.048C445.917 255.555 450.303 250.352 457.097 250.352C460.408 250.352 462.816 251.599 464.364 253.878L469.395 249.75C467.245 246.31 462.902 244.418 457.57 244.418C446.39 244.418 438.865 252.201 438.865 262.478C438.865 270.218 444.541 275.55 453.743 275.55Z" fill="black"/>
<path d="M491.7 275.034H498.666L491.27 244.934H484.39L464.911 275.034H472.35L476.263 268.584H490.281L491.7 275.034ZM479.488 263.295L486.583 251.685L489.12 263.295H479.488Z" fill="black"/>
<path d="M506.512 275.034H513.478L518.38 250.61H527.969L529.13 244.934H502.9L501.739 250.61H511.371L506.512 275.034Z" fill="black"/>
<path d="M526.858 275.034H533.867L539.887 244.934H532.878L526.858 275.034Z" fill="black"/>
<path d="M556.577 275.55C567.671 275.55 575.195 267.767 575.195 257.49C575.195 249.75 569.692 244.418 560.533 244.418C549.439 244.418 541.914 252.201 541.914 262.478C541.914 270.218 547.418 275.55 556.577 275.55ZM557.179 269.616C551.89 269.616 548.966 266.563 548.966 262.091C548.966 255.727 553.137 250.352 559.931 250.352C565.22 250.352 568.143 253.405 568.143 257.877C568.143 264.241 563.973 269.616 557.179 269.616Z" fill="black"/>
<path d="M603.995 244.934L600.254 263.811L589.031 244.934H583.269L577.249 275.034H584.129L587.913 256.2L599.136 275.034H604.855L610.875 244.934H603.995Z" fill="black"/>
</svg>
